<svg width="292" height="24" viewBox="0 0 292 24" fill="none" xmlns="http://www.w3.org/2000/svg">
<path d="M200.291 3.61097C199.781 3.09993 199.174 2.69455 198.507 2.41796C197.839 2.14138 197.124 1.99902 196.401 1.99902C195.679 1.99902 194.963 2.14138 194.296 2.41796C193.628 2.69455 193.022 3.09993 192.511 3.61097L191.451 4.67104L190.391 3.61097C189.36 2.5792 187.96 1.99956 186.501 1.99956C185.042 1.99956 183.643 2.5792 182.611 3.61097C181.58 4.64273 181 6.04211 181 7.50125C181 8.96039 181.58 10.3598 182.611 11.3915L183.671 12.4516L191.451 20.2322L199.231 12.4516L200.291 11.3915C200.802 10.8807 201.208 10.2743 201.484 9.60676C201.761 8.93925 201.903 8.22379 201.903 7.50125C201.903 6.77871 201.761 6.06325 201.484 5.39574C201.208 4.72823 200.802 4.12176 200.291 3.61097V3.61097Z" stroke="#030D15" stroke-width="2" stroke-linecap="round" stroke-linejoin="round"/>
<path d="M101 19.001C105.418 19.001 109 15.4191 109 11.0006C109 6.58213 105.418 3.00024 101 3.00024C96.5817 3.00024 92.9999 6.58213 92.9999 11.0006C92.9999 15.4191 96.5817 19.001 101 19.001Z" stroke="#030D15" stroke-width="2" stroke-linecap="round" stroke-linejoin="round"/>
<path d="M111 20.9993L106.65 16.6501" stroke="#030D15" stroke-width="2" stroke-linecap="round" stroke-linejoin="round"/>
<path d="M101 8.00049V13.9995" stroke="#030D15" stroke-width="2" stroke-linecap="round" stroke-linejoin="round"/>
<path d="M98 10.9998H104" stroke="#030D15" stroke-width="2" stroke-linecap="round" stroke-linejoin="round"/>
<path d="M1 1.99902H4.99999L7.67999 15.3898C7.77144 15.8502 8.0219 16.2638 8.38754 16.5581C8.75317 16.8525 9.21069 17.0089 9.67999 16.9999H19.4C19.8693 17.0089 20.3268 16.8525 20.6924 16.5581C21.0581 16.2638 21.3085 15.8502 21.4 15.3898L23 6.99931H5.99999" stroke="#030D15" stroke-width="2" stroke-linecap="round" stroke-linejoin="round"/>
<path d="M9 22C9.55228 22 10 21.5524 10 21.0002C10 20.4481 9.55228 20.0005 9 20.0005C8.44772 20.0005 8 20.4481 8 21.0002C8 21.5524 8.44772 22 9 22Z" stroke="#030D15" stroke-width="2" stroke-linecap="round" stroke-linejoin="round"/>
<path d="M20 22C20.5523 22 21 21.5524 21 21.0002C21 20.4481 20.5523 20.0005 20 20.0005C19.4477 20.0005 19 20.4481 19 21.0002C19 21.5524 19.4477 22 20 22Z" stroke="#030D15" stroke-width="2" stroke-linecap="round" stroke-linejoin="round"/>
<path d="M287 1L291 5L287 9" stroke="#030D15" stroke-width="2" stroke-linecap="round" stroke-linejoin="round"/>
<path d="M273 11V9.00008C273 7.93926 273.421 6.92188 274.172 6.17177C274.922 5.42165 275.939 5.00024 277 5.00024H291" stroke="#030D15" stroke-width="2" stroke-linecap="round" stroke-linejoin="round"/>
<path d="M277 22.9995L273 18.9993L277 14.999" stroke="#030D15" stroke-width="2" stroke-linecap="round" stroke-linejoin="round"/>
<path d="M291 12.9998V15C291 16.061 290.579 17.0785 289.828 17.8288C289.078 18.579 288.061 19.0005 287 19.0005H273" stroke="#030D15" stroke-width="2" stroke-linecap="round" stroke-linejoin="round"/>
</svg>
